<svg xmlns="http://www.w3.org/2000/svg" viewBox="0 0 198 195"><defs><clipPath id="a"><path d="M0 0h198v195H0z"/></clipPath></defs><g><g data-name="Layer 2" clip-path="url(#a)"><g data-name="Photo Surface"><g data-name="Outline no shadow"><path data-name="Path 182" d="M35.063 0h127.875A35.241 35.241 0 01198 35.417v124.166A35.241 35.241 0 01162.938 195H35.063A35.241 35.241 0 010 159.583V35.417A35.241 35.241 0 0135.063 0z" fill="#001e36"/></g></g><g fill="#31a8ff" data-name="Outlined Mnemonics &amp; Logos"><path data-name="Path 139" d="M69.847 103.736v32.542a.939.939 0 01-1.063 1.063H52.447a.857.857 0 01-.73-.266 1.6 1.6 0 01-.2-.93V51.271q0-1.859.93-1.86h52.6a1.613 1.613 0 01.93.2q.265.2.4 1.793l1.461 14.478a.677.677 0 01-.2.731 1.168 1.168 0 01-.863.332H69.847v20.19h33.206c.8 0 1.2.311 1.2.93v14.611a.939.939 0 01-1.063 1.063z"/><path data-name="Path 140" d="M115.937 71.327h14.478a1.807 1.807 0 011.727 1.328 6.432 6.432 0 01.664 1.859 21.549 21.549 0 01.4 2.59q.131 1.395.133 2.988a31.028 31.028 0 018.833-7.106 24.87 24.87 0 0112.286-2.989 1.057 1.057 0 011.2 1.2v16.072c0 .621-.444.93-1.328.93a33.531 33.531 0 00-15.607 2.789 14.035 14.035 0 00-4.45 3.055v42.102q0 1.2-1.063 1.2h-16.077a1.174 1.174 0 01-1.329-1.328V90.321q0-2.92-.066-6.176t-.2-6.442a42.1 42.1 0 00-.531-5.446.763.763 0 01.93-.93z"/></g></g></g></svg>
